<svg width="608" height="109" viewBox="0 0 608 109" fill="none" xmlns="http://www.w3.org/2000/svg">
<g filter="url(#filter0_d)">
<path d="M12.086 22.4297C12.2006 25.9245 14.0053 27.6719 17.5001 27.6719C19.2905 27.6719 20.6368 27.1061 21.5392 25.9746C22.4558 24.8431 23.0001 22.9382 23.172 20.2598H14.5352V14.4375H23.172C22.9714 11.8594 22.4057 9.9974 21.4747 8.85156C20.5437 7.69141 19.2546 7.11133 17.6075 7.11133C15.7599 7.11133 14.3777 7.54102 13.461 8.40039C12.5587 9.24544 12.0789 10.6276 12.0216 12.5469H4.52353C4.83863 9.03776 6.14918 6.28776 8.45517 4.29688C10.7612 2.29167 13.8119 1.28906 17.6075 1.28906C20.2143 1.28906 22.5131 1.90495 24.504 3.13672C26.5092 4.36849 28.0489 6.14453 29.1231 8.46484C30.2117 10.7708 30.756 13.4635 30.756 16.543V18.2402C30.756 23.0241 29.5743 26.7552 27.211 29.4336C24.8477 32.112 21.6108 33.4512 17.5001 33.4512C15.0222 33.4512 12.8165 33 10.8829 32.0977C8.96363 31.181 7.45973 29.8919 6.37119 28.2305C5.28264 26.5547 4.68108 24.6211 4.5665 22.4297H12.086ZM56.9428 4.38281C61.0105 4.38281 64.2475 5.60026 66.6538 8.03516C69.0743 10.4557 70.2846 13.6283 70.2846 17.5527C70.2846 19.472 69.9624 21.2194 69.3178 22.7949C68.6876 24.3561 67.7996 25.6882 66.6538 26.791C64.2332 29.1543 60.9962 30.3359 56.9428 30.3359V34.2891H49.6811V30.3359C45.5704 30.3359 42.3048 29.1543 39.8842 26.791C37.4637 24.4277 36.2534 21.3626 36.2534 17.5957C36.2534 15.6048 36.5756 13.8001 37.2202 12.1816C37.8647 10.5632 38.767 9.18099 39.9272 8.03516C42.3621 5.60026 45.6134 4.38281 49.6811 4.38281V0.429688H56.9428V4.38281ZM49.4018 10.4414C47.5255 10.4414 46.0431 11.0716 44.9545 12.332C43.8803 13.5924 43.3432 15.347 43.3432 17.5957C43.3432 19.6582 43.8875 21.291 44.976 22.4941C46.0646 23.6829 47.6329 24.2773 49.6811 24.2773V10.4414H49.4018ZM56.9428 10.4414V24.2773H57.2651C59.0555 24.2773 60.4877 23.6901 61.562 22.5156C62.6505 21.3268 63.1948 19.6725 63.1948 17.5527C63.1948 15.347 62.6648 13.6139 61.6049 12.3535C60.5594 11.0788 59.0053 10.4414 56.9428 10.4414ZM96.45 4.38281C100.518 4.38281 103.755 5.60026 106.161 8.03516C108.582 10.4557 109.792 13.6283 109.792 17.5527C109.792 19.472 109.47 21.2194 108.825 22.7949C108.195 24.3561 107.307 25.6882 106.161 26.791C103.74 29.1543 100.503 30.3359 96.45 30.3359V34.2891H89.1883V30.3359C85.0776 30.3359 81.812 29.1543 79.3914 26.791C76.9708 24.4277 75.7606 21.3626 75.7606 17.5957C75.7606 15.6048 76.0828 13.8001 76.7274 12.1816C77.3719 10.5632 78.2742 9.18099 79.4344 8.03516C81.8693 5.60026 85.1206 4.38281 89.1883 4.38281V0.429688H96.45V4.38281ZM88.909 10.4414C87.0327 10.4414 85.5503 11.0716 84.4617 12.332C83.3875 13.5924 82.8504 15.347 82.8504 17.5957C82.8504 19.6582 83.3947 21.291 84.4832 22.4941C85.5718 23.6829 87.1401 24.2773 89.1883 24.2773V10.4414H88.909ZM96.45 10.4414V24.2773H96.7723C98.5626 24.2773 99.9949 23.6901 101.069 22.5156C102.158 21.3268 102.702 19.6725 102.702 17.5527C102.702 15.347 102.172 13.6139 101.112 12.3535C100.067 11.0788 98.5125 10.4414 96.45 10.4414ZM135.592 19.7441H123.733V27.1992H137.74V33H116.192V1.71875H137.783V7.54102H123.733V14.1367H135.592V19.7441ZM154.517 20.625H150.951V33H143.41V1.71875H150.951V13.8145H153.851L159.867 1.71875H168.998L160.404 16.1562L170.072 33H161.156L154.517 20.625ZM199.138 7.54102H189.749V33H182.208V7.54102H172.991V1.71875H199.138V7.54102ZM223.326 1.71875H230.867V33H223.326V13.2773L212.09 33H204.549V1.71875H212.09V21.4629L223.326 1.71875ZM238.127 33V1.71875H249.363C253.388 1.71875 256.446 2.45638 258.537 3.93164C260.642 5.4069 261.695 7.54818 261.695 10.3555C261.695 11.974 261.323 13.3561 260.578 14.502C259.833 15.6478 258.737 16.4928 257.291 17.0371C258.923 17.4668 260.177 18.2689 261.05 19.4434C261.924 20.6178 262.361 22.0501 262.361 23.7402C262.361 26.8053 261.387 29.1113 259.439 30.6582C257.505 32.1908 254.634 32.9714 250.824 33H238.127ZM245.668 19.7012V27.1992H250.609C251.97 27.1992 253.015 26.8913 253.746 26.2754C254.476 25.6452 254.841 24.7643 254.841 23.6328C254.841 21.026 253.545 19.7155 250.953 19.7012H245.668ZM245.668 14.7598H249.599C251.246 14.7454 252.421 14.4447 253.123 13.8574C253.825 13.2702 254.175 12.4036 254.175 11.2578C254.175 9.9401 253.796 8.99479 253.037 8.42188C252.278 7.83464 251.053 7.54102 249.363 7.54102H245.668V14.7598ZM295.315 33H287.817V19.9375H276.71V33H269.169V1.71875H276.71V14.1367H287.817V1.71875H295.315V33ZM310.287 12.4824H314.176C316.654 12.4824 318.845 12.9049 320.75 13.75C322.655 14.5951 324.116 15.791 325.133 17.3379C326.164 18.8704 326.68 20.6322 326.68 22.623C326.68 25.7025 325.534 28.2018 323.243 30.1211C320.965 32.0404 317.9 33 314.047 33H302.725V1.71875H310.287V12.4824ZM336.477 33H328.957V1.71875H336.477V33ZM310.287 18.2832V27.1992H314.155C315.687 27.1992 316.897 26.7695 317.785 25.9102C318.688 25.0508 319.139 23.9408 319.139 22.5801C319.139 21.291 318.695 20.2526 317.807 19.4648C316.919 18.6771 315.687 18.2832 314.112 18.2832H310.287ZM363.158 19.7441H351.299V27.1992H365.306V33H343.758V1.71875H365.349V7.54102H351.299V14.1367H363.158V19.7441ZM392.157 22.3867V33H384.616V1.71875H397.098C399.49 1.71875 401.603 2.16276 403.436 3.05078C405.284 3.92448 406.709 5.17773 407.711 6.81055C408.728 8.42904 409.237 10.2695 409.237 12.332C409.237 15.3828 408.141 17.8249 405.95 19.6582C403.773 21.4772 400.779 22.3867 396.969 22.3867H392.157ZM392.157 16.5645H397.098C398.559 16.5645 399.669 16.1992 400.428 15.4688C401.202 14.7383 401.588 13.707 401.588 12.375C401.588 10.9141 401.194 9.74674 400.407 8.87305C399.619 7.99935 398.545 7.55534 397.184 7.54102H392.157V16.5645ZM435.316 19.7441H423.457V27.1992H437.465V33H415.916V1.71875H437.508V7.54102H423.457V14.1367H435.316V19.7441ZM450.568 1.71875V27.1992H458.345V1.71875H465.886V27.1992H473.577V1.71875H481.075V33H443.026V1.71875H450.568ZM507.756 19.7441H495.897V27.1992H509.905V33H488.356V1.71875H509.948V7.54102H495.897V14.1367H507.756V19.7441ZM541.764 33H534.266V19.9375H523.158V33H515.617V1.71875H523.158V14.1367H534.266V1.71875H541.764V33ZM567.542 1.71875H575.083V33H567.542V13.2773L556.306 33H548.765V1.71875H556.306V21.4629L567.542 1.71875ZM595.813 33V22.0215H591.473L586.188 33H578.003L584.426 19.4648C581.633 17.6458 580.237 14.9746 580.237 11.4512C580.237 8.35742 581.254 5.96549 583.288 4.27539C585.322 2.57096 588.251 1.71875 592.075 1.71875H603.376V33H595.813ZM587.756 12.1172C587.756 13.707 588.079 14.86 588.723 15.5762C589.368 16.2923 590.449 16.6504 591.967 16.6504H595.813V7.54102H592.01C590.506 7.54102 589.418 7.9349 588.745 8.72266C588.086 9.49609 587.756 10.6276 587.756 12.1172ZM70.0483 100.691H63.2807V93H46.2436V100.67H39.2612L38.7241 87.1992H40.937C42.0971 86.4258 43.0281 85.1009 43.7299 83.2246C44.4461 81.334 44.9545 78.627 45.2553 75.1035L46.2221 61.7188H67.5131V87.1992H70.8432L70.0483 100.691ZM49.4662 87.1992H59.9936V67.541H53.3334L52.7534 75.3613C52.3237 80.4316 51.228 84.3776 49.4662 87.1992ZM102.745 61.7188V93H95.2039V67.541H88.1785L87.6629 78.0469C87.448 81.6706 86.9467 84.5638 86.159 86.7266C85.3712 88.8893 84.2469 90.472 82.7859 91.4746C81.3393 92.4629 79.3628 92.9714 76.8562 93H74.8367V87.1992L75.8895 87.0918C77.3934 86.877 78.4819 85.9603 79.1551 84.3418C79.8283 82.709 80.2651 79.9661 80.4656 76.1133L81.0027 61.7188H102.745ZM123.561 93V82.0215H119.221L113.936 93H105.75L112.174 79.4648C109.381 77.6458 107.985 74.9746 107.985 71.4512C107.985 68.3574 109.001 65.9655 111.035 64.2754C113.069 62.571 115.998 61.7188 119.822 61.7188H131.123V93H123.561ZM115.504 72.1172C115.504 73.707 115.826 74.86 116.471 75.5762C117.115 76.2923 118.197 76.6504 119.715 76.6504H123.561V67.541H119.758C118.254 67.541 117.166 67.9349 116.492 68.7227C115.833 69.4961 115.504 70.6276 115.504 72.1172ZM151.507 93V61.7188H162.743C166.768 61.7188 169.826 62.4564 171.917 63.9316C174.022 65.4069 175.075 67.5482 175.075 70.3555C175.075 71.974 174.703 73.3561 173.958 74.502C173.213 75.6478 172.117 76.4928 170.671 77.0371C172.304 77.4668 173.557 78.2689 174.431 79.4434C175.304 80.6178 175.741 82.0501 175.741 83.7402C175.741 86.8053 174.767 89.1113 172.819 90.6582C170.886 92.1908 168.014 92.9714 164.204 93H151.507ZM159.048 79.7012V87.1992H163.989C165.35 87.1992 166.395 86.8913 167.126 86.2754C167.856 85.6452 168.222 84.7643 168.222 83.6328C168.222 81.026 166.925 79.7155 164.333 79.7012H159.048ZM159.048 74.7598H162.979C164.627 74.7454 165.801 74.4447 166.503 73.8574C167.205 73.2702 167.556 72.4036 167.556 71.2578C167.556 69.9401 167.176 68.9948 166.417 68.4219C165.658 67.8346 164.433 67.541 162.743 67.541H159.048V74.7598ZM200.317 87.1562H189.983L188.178 93H180.121L191.594 61.7188H198.684L210.242 93H202.143L200.317 87.1562ZM191.787 81.334H198.512L195.139 70.4844L191.787 81.334ZM222.572 61.7188V87.1992H230.349V61.7188H237.89V87.1992H245.582V61.7188H253.08V93H215.031V61.7188H222.572ZM279.761 79.7441H267.901V87.1992H281.909V93H260.36V61.7188H281.952V67.541H267.901V74.1367H279.761V79.7441ZM308.719 67.541H295.119V93H287.578V61.7188H308.719V67.541ZM339.826 78.0039C339.826 81.0547 339.26 83.7546 338.129 86.1035C336.997 88.4525 335.386 90.2643 333.295 91.5391C331.218 92.7995 328.847 93.4297 326.183 93.4297C323.519 93.4297 321.156 92.821 319.093 91.6035C317.031 90.3717 315.42 88.6172 314.259 86.3398C313.114 84.0625 312.512 81.4486 312.455 78.498V76.7363C312.455 73.6712 313.013 70.9714 314.131 68.6367C315.262 66.2878 316.873 64.4759 318.965 63.2012C321.07 61.9264 323.462 61.2891 326.14 61.2891C328.79 61.2891 331.153 61.9193 333.23 63.1797C335.307 64.4401 336.918 66.2376 338.064 68.5723C339.224 70.8926 339.812 73.5566 339.826 76.5645V78.0039ZM332.156 76.6934C332.156 73.5853 331.633 71.2292 330.588 69.625C329.556 68.0065 328.074 67.1973 326.14 67.1973C322.359 67.1973 320.361 70.0332 320.146 75.7051L320.125 78.0039C320.125 81.069 320.633 83.4251 321.65 85.0723C322.667 86.7194 324.178 87.543 326.183 87.543C328.088 87.543 329.556 86.7337 330.588 85.1152C331.619 83.4967 332.142 81.1693 332.156 78.1328V76.6934ZM381.092 67.541H367.536V72.4824H371.424C373.902 72.4824 376.093 72.9049 377.998 73.75C379.903 74.5951 381.364 75.791 382.381 77.3379C383.413 78.8704 383.928 80.6322 383.928 82.623C383.928 85.7025 382.782 88.2018 380.491 90.1211C378.213 92.0404 375.148 93 371.295 93H359.952V61.7188H381.092V67.541ZM367.536 78.2832V87.1992H371.403C372.935 87.1992 374.146 86.7695 375.034 85.9102C375.936 85.0508 376.387 83.9408 376.387 82.5801C376.387 81.291 375.943 80.2526 375.055 79.4648C374.167 78.6771 372.935 78.2832 371.36 78.2832H367.536ZM408.439 61.7188H415.98V93H408.439V73.2773L397.203 93H389.662V61.7188H397.203V81.4629L408.439 61.7188ZM438.472 70.3984C438.472 69.4102 438.085 68.6152 437.312 68.0137C436.553 67.4121 435.521 67.1113 434.218 67.1113C433 67.1113 432.019 67.4049 431.275 67.9922C430.544 68.5651 430.179 69.3242 430.179 70.2695H422.659C422.659 68.5508 423.146 67.0111 424.12 65.6504C425.109 64.2897 426.498 63.2298 428.288 62.4707C430.079 61.6973 432.055 61.3105 434.218 61.3105C437.942 61.3105 440.835 62.0911 442.898 63.6523C444.974 65.2135 446.013 67.3978 446.013 70.2051C446.013 71.6374 445.59 72.9479 444.745 74.1367C443.915 75.3112 442.762 76.2422 441.286 76.9297C442.976 77.5312 444.265 78.4479 445.153 79.6797C446.056 80.8971 446.507 82.4154 446.507 84.2344C446.507 87.0417 445.39 89.276 443.155 90.9375C440.921 92.5846 437.942 93.4082 434.218 93.4082C430.766 93.4082 427.901 92.599 425.624 90.9805C423.347 89.3477 422.208 87.1276 422.208 84.3203H429.771C429.771 85.2513 430.186 86.0391 431.017 86.6836C431.847 87.3138 432.915 87.6289 434.218 87.6289C435.622 87.6289 436.76 87.2995 437.634 86.6406C438.508 85.9818 438.944 85.1224 438.944 84.0625C438.944 82.5156 438.572 81.4271 437.827 80.7969C437.082 80.1523 435.994 79.8301 434.562 79.8301H430.544V74.2441H434.819C437.254 74.1725 438.472 72.8906 438.472 70.3984ZM479.741 93H472.243V79.9375H461.135V93H453.594V61.7188H461.135V74.1367H472.243V61.7188H479.741V93ZM506.572 79.7441H494.713V87.1992H508.721V93H487.172V61.7188H508.764V67.541H494.713V74.1367H506.572V79.7441ZM539.741 82.4082C539.641 84.5853 539.054 86.5117 537.98 88.1875C536.905 89.849 535.394 91.138 533.446 92.0547C531.513 92.9714 529.3 93.4297 526.808 93.4297C522.697 93.4297 519.46 92.0905 517.097 89.4121C514.734 86.7337 513.552 82.9525 513.552 78.0684V76.5215C513.552 73.4564 514.082 70.778 515.142 68.4863C516.216 66.1803 517.756 64.4043 519.761 63.1582C521.766 61.8978 524.086 61.2676 526.722 61.2676C530.517 61.2676 533.568 62.2702 535.874 64.2754C538.18 66.2663 539.491 69.0163 539.806 72.5254H532.286C532.229 70.6204 531.749 69.2526 530.847 68.4219C529.945 67.5911 528.57 67.1758 526.722 67.1758C524.846 67.1758 523.471 67.8776 522.597 69.2812C521.723 70.6849 521.265 72.9264 521.222 76.0059V78.2188C521.222 81.556 521.637 83.9408 522.468 85.373C523.313 86.8053 524.76 87.5215 526.808 87.5215C528.541 87.5215 529.866 87.1133 530.782 86.2969C531.699 85.4805 532.186 84.1842 532.243 82.4082H539.741ZM563.715 87.1562H553.381L551.577 93H543.52L554.993 61.7188H562.083L573.641 93H565.542L563.715 87.1562ZM555.186 81.334H561.911L558.538 70.4844L555.186 81.334Z" fill="white"/>
</g>
<defs>
<filter id="filter0_d" x="0.523438" y="0.429688" width="606.852" height="108.262" filterUnits="userSpaceOnUse" color-interpolation-filters="sRGB">
<feFlood flood-opacity="0" result="BackgroundImageFix"/>
<feColorMatrix in="SourceAlpha" type="matrix" values="0 0 0 0 0 0 0 0 0 0 0 0 0 0 0 0 0 0 127 0"/>
<feOffset dy="4"/>
<feGaussianBlur stdDeviation="2"/>
<feColorMatrix type="matrix" values="0 0 0 0 0 0 0 0 0 0 0 0 0 0 0 0 0 0 0.25 0"/>
<feBlend mode="normal" in2="BackgroundImageFix" result="effect1_dropShadow"/>
<feBlend mode="normal" in="SourceGraphic" in2="effect1_dropShadow" result="shape"/>
</filter>
</defs>
</svg>
